<svg version="1.2" xmlns="http://www.w3.org/2000/svg" viewBox="0 0 300 300" width="300" height="300"><defs><linearGradient id="P" gradientUnits="userSpaceOnUse"/><linearGradient id="g1" x2="1" href="#P" gradientTransform="matrix(59.779,0,0,67.303,120.11,73.331)"><stop stop-color="#000a68"/><stop offset="1" stop-color="#00c4ee"/></linearGradient></defs><style>.a{fill:#d2eaf5}.b{fill:#022239}.c{fill:url(#g1)}</style><path fill-rule="evenodd" class="a" d="m0 0h300v300h-300z"/><path class="b" d="m32.1 181.5c4.7 1.2 7.9 2.4 9.5 3.8q1.8 1.4 1.8 3.7 0 2.2-0.9 3.6-2.5 3.3-8.5 3.3c-5.7 0-8.9-1.9-9.6-5.7h-4.4c1.3 6.1 5.9 9.1 13.9 9.1 3.6 0 6.6-0.8 9-2.3q4.3-2.8 4.4-8.3 0-4.4-3.5-6.9-2.5-1.8-8.1-3.2-5.5-1.4-7.2-2.4-3.7-1.8-3.7-5.1 0-1.8 0.8-2.9 2.1-3.2 7.4-3.2 7.4 0 8.5 4.7h4.1q-2-7.9-12.6-7.9c-3.2 0-6 0.9-8.4 2.6-2.4 1.7-3.6 4.2-3.6 7.6q0 7 11.1 9.5zm24.3-14.4q-0.7-0.7-1.6-0.7-1 0-1.7 0.7-0.7 0.7-0.7 1.6c0 0.7 0.2 1.3 0.7 1.7q0.7 0.7 1.7 0.7 0.9 0 1.6-0.7c0.5-0.4 0.7-1 0.7-1.7q0-0.9-0.7-1.6zm0.3 31.6v-23.5h-3.8v23.5zm10.6 3.2h-3.8c0.4 2.4 1.5 4.6 3.4 6.5q3.6 3.6 8.6 3.6 5 0 8.6-3.6c2.4-2.4 3.6-5.2 3.6-8.6v-24.6h-3.8v3.9c-0.1-0.2-0.3-0.5-0.6-0.7q-3.5-3.7-8.2-3.8-4.9 0.1-8.2 3.8-3.2 3.6-3.2 8.5 0 4.9 3.2 8.6 3.3 3.7 8.2 3.7 4.9 0 8.2-3.7c0.3-0.3 0.5-0.5 0.6-0.8v5.1c0 2.3-0.8 4.3-2.4 6q-2.5 2.4-6 2.5-3.5-0.1-6-2.5c-1.1-1.2-1.9-2.5-2.2-3.9zm16.6-15q0 3.4-2.4 6c-1.5 1.7-3.5 2.6-5.8 2.6-2.3 0-4.3-0.9-5.9-2.6q-2.4-2.5-2.4-6 0-3.5 2.4-6c1.6-1.7 3.6-2.5 5.9-2.5 2.3 0 4.3 0.8 5.8 2.5q2.4 2.6 2.4 6zm28 11.8h3.7v-14.7c0-2.7-0.7-4.9-2.1-6.6q-1.1-1.3-2.6-2c-1-0.5-2.4-0.7-4.1-0.7-1.7 0-3.1 0.4-4.4 1.3q-1.8 1.2-3 3.2v-4h-3.7v23.5h3.7v-9.9c0-3 0.5-5.3 1.7-7.1q0.9-1.5 2.4-2.4 1.5-0.9 3.9-0.9c1.6 0 2.8 0.6 3.4 1.7q1.1 1.6 1.1 3.9zm33.3 0v-23.5h-3.7v4q-0.3-0.4-0.7-0.8-3.3-3.7-8.2-3.7-4.8 0-8.1 3.7-3.3 3.6-3.3 8.5 0 5 3.3 8.6 3.3 3.7 8.1 3.7 4.9 0 8.2-3.7 0.4-0.4 0.7-0.8v4zm-3.7-11.8q-0.1 3.5-2.4 6c-1.6 1.7-3.6 2.6-5.9 2.6q-3.5 0-5.9-2.6-2.4-2.5-2.4-6 0-3.4 2.4-5.9 2.4-2.6 5.9-2.6c2.3 0 4.3 0.8 5.9 2.6q2.3 2.5 2.4 5.9zm15.4 11.8v-40h-3.7v40zm32.5-17.1c4.7 1.1 7.9 2.3 9.6 3.7 1.1 1 1.7 2.2 1.7 3.7 0 1.5-0.3 2.7-0.9 3.6-1.6 2.2-4.5 3.4-8.5 3.4-5.7 0-8.9-2-9.6-5.8h-4.4q1.9 9.2 14 9.2c3.5 0 6.5-0.8 8.9-2.4 2.9-1.9 4.3-4.6 4.4-8.3-0.1-2.9-1.2-5.2-3.5-6.9q-2.5-1.7-8.1-3.2-5.5-1.4-7.2-2.3-3.7-1.9-3.6-5.2-0.1-1.8 0.7-2.9 2.1-3.1 7.4-3.1 7.4 0 8.5 4.7h4.1q-2-7.9-12.6-7.9c-3.3 0-6 0.8-8.4 2.5q-3.6 2.6-3.6 7.6 0 7 11.1 9.6zm24.3 17.1v-9.9c0-3.2 0.5-5.7 1.7-7.4q0.9-1.4 2.4-2.2 1.5-0.8 3.9-0.8c1.6 0 2.7 0.6 3.4 1.7q1 1.6 1 3.9v14.7h3.8v-14.7c0-2.7-0.7-4.9-2.2-6.6q-1-1.2-2.5-2c-1.1-0.4-2.4-0.7-4.1-0.7q-2.5 0-4.4 1.3-1.9 1.2-3 3.2v-20.5h-3.8v40zm27.3-31.6q-0.7-0.7-1.7-0.7c-0.7 0-1.2 0.2-1.7 0.7q-0.7 0.7-0.7 1.7c0 0.6 0.2 1.2 0.7 1.6 0.5 0.5 1 0.8 1.7 0.8q1 0 1.7-0.8c0.4-0.4 0.6-1 0.6-1.6q0-1-0.6-1.7zm0.1 31.6v-23.5h-3.7v23.5zm20.8-36.6v-3.4h-2.6q-4 0-5.6 1.9c-1.2 1.3-1.7 3.1-1.7 5.5v9.1h-4.8v3.5h4.8v20h3.7v-20h6.2v-3.5h-6.2v-10.1c0-0.8 0.2-1.6 0.6-2.1 0.4-0.6 1.2-0.9 2.4-0.9zm2.7 16.6h5.9v20h3.7v-20h5.8v-3.5h-5.8v-9.1h-3.7v9.1h-5.9z"/><path class="c" d="m178.4 126.6q-0.2-1.2-0.7-2.3-0.5-1.1-1.4-1.9-0.9-0.9-2-1.4-1.1-0.5-2.4-0.5l-1.1-12.6q-0.1-1.9-0.6-3.8-0.6-1.9-1.4-3.6-0.9-1.8-2.1-3.3-1.1-1.6-2.6-2.9-1.4-1.3-3-2.3-1.7-1.1-3.5-1.8-1.8-0.7-3.7-1-2-0.4-3.9-0.4-1.9 0-3.9 0.4-1.9 0.3-3.7 1-1.8 0.7-3.5 1.8-1.6 1-3 2.3-1.5 1.3-2.6 2.9-1.2 1.5-2.1 3.3-0.8 1.7-1.4 3.6-0.5 1.9-0.6 3.8l-1.1 12.6q-1.3 0-2.4 0.5-1.1 0.5-2 1.4-0.9 0.8-1.4 1.9-0.5 1.1-0.7 2.3l-1.5 14h59.8zm-43.6-18.2c0.7-8 7.2-14 15.2-14 8 0 14.6 6 15.3 14l1 12.1h-32.6zm-8.4 26.6l0.9-7.8c0-0.7 0.6-1.2 1.3-1.2h43c0.6 0 1.2 0.5 1.3 1.2l0.8 7.8zm23.7-49.2q0.5 0 1-0.2 0.5-0.3 0.9-0.6 0.4-0.4 0.7-1 0.2-0.5 0.2-1v-6.9c0-0.7-0.3-1.4-0.9-2-0.5-0.5-1.2-0.8-1.9-0.8-0.8 0-1.5 0.3-2 0.8-0.5 0.6-0.8 1.3-0.8 2v6.9q0 0.5 0.2 1 0.2 0.6 0.6 1 0.4 0.3 0.9 0.6 0.5 0.2 1.1 0.2zm-14.7 1.8q0.3 0.5 0.7 0.9 0.5 0.3 1 0.5 0.6 0.1 1.1 0 0.6-0.1 1-0.3 0.5-0.3 0.9-0.8 0.3-0.4 0.4-0.9 0.2-0.6 0.1-1.1-0.1-0.6-0.3-1.1l-3.5-5.9c-0.3-0.6-0.9-1.1-1.7-1.2-0.7-0.2-1.4-0.1-2.1 0.2-0.6 0.4-1.1 1-1.3 1.7-0.1 0.7-0.1 1.5 0.3 2.1zm25.5 1q0.4 0.3 1 0.4 0.5 0.1 1.1-0.1 0.5-0.1 1-0.5 0.4-0.3 0.7-0.8l3.4-5.9c0.4-0.7 0.5-1.4 0.3-2.1-0.2-0.8-0.7-1.4-1.3-1.7-0.7-0.4-1.4-0.5-2.1-0.3-0.8 0.2-1.4 0.6-1.7 1.3l-3.5 5.9q-0.2 0.5-0.3 1-0.1 0.6 0.1 1.1 0.1 0.6 0.4 1 0.4 0.5 0.9 0.7zm-22.2 20.1l-0.7 7.8h12v-18.2c-5.9 0-10.8 4.5-11.3 10.4z"/><path class="b" d="m55.2 222.2h-2.7v0.4h1.2v3h0.4v-3h1.1zm4 0.8c-0.6 0-0.9 0.5-0.9 0.7v-0.7h-0.4v2.6h0.4v-1.1c0-0.6 0.3-1.1 0.9-1.1v-0.4zm4 0c-0.7 0-1.2 0.6-1.2 1.3 0 0.7 0.5 1.3 1.2 1.3 0.5 0 0.8-0.1 1-0.4v0.4h0.3v-2.6h-0.3v0.4c-0.2-0.2-0.5-0.4-1-0.4zm0.1 2.3c-0.6 0-0.9-0.5-0.9-1 0-0.5 0.3-1 0.9-1 0.6 0 0.9 0.5 0.9 1 0 0.5-0.3 1-0.9 1zm5.6 0c-0.6 0-0.9-0.5-0.9-1 0-0.5 0.3-1 0.9-1 0.4 0 0.6 0.2 0.8 0.5h0.4c-0.2-0.5-0.6-0.8-1.2-0.8-0.8 0-1.3 0.6-1.3 1.3 0 0.7 0.5 1.3 1.3 1.3 0.6 0 1-0.3 1.2-0.8h-0.4c-0.2 0.3-0.4 0.5-0.8 0.5zm6.4-2.3h-0.6l-1.2 1.3v-2.3h-0.4v3.6h0.4v-0.8l0.5-0.5 0.9 1.3h0.4l-1.1-1.6zm3 2.6h0.4v-2.6h-0.4zm0-3.5v0.5h0.4v-0.5zm3.6 1v2.5h0.4v-1.4c0-0.5 0.4-0.8 0.8-0.8 0.4 0 0.7 0.3 0.7 0.8v1.4h0.4v-1.5c0-0.7-0.5-1.1-1-1.1-0.5 0-0.7 0.2-0.9 0.5v-0.4zm7.5 0v0.4c-0.2-0.3-0.5-0.5-0.9-0.5-0.8 0-1.3 0.6-1.3 1.3 0 0.8 0.5 1.3 1.3 1.3 0.4 0 0.7-0.1 0.9-0.4v0.3c0 0.6-0.3 0.8-0.9 0.8q-0.6 0-0.7-0.4h-0.4c0.1 0.5 0.5 0.8 1.1 0.8 0.8 0 1.3-0.4 1.3-1.1v-2.5zm-0.9 2.2c-0.6 0-0.9-0.4-0.9-1 0-0.5 0.3-0.9 0.9-0.9 0.5 0 0.9 0.4 0.9 0.9 0 0.6-0.4 1-0.9 1zm9-2.3c-0.7 0-1 0.3-1 0.8 0 0.9 1.7 0.5 1.7 1.1 0 0.4-0.4 0.4-0.6 0.4-0.5 0-0.7-0.2-0.8-0.5h-0.4c0.1 0.5 0.4 0.9 1.1 0.9 0.7 0 1.1-0.3 1.1-0.8 0-1-1.7-0.6-1.7-1.2q0-0.3 0.6-0.3c0.4 0 0.6 0.1 0.6 0.4h0.4c0-0.4-0.3-0.8-1-0.8zm4.1-1v3.6h0.4v-1.4c0-0.5 0.4-0.8 0.8-0.8 0.4 0 0.7 0.3 0.7 0.8v1.4h0.4v-1.5c0-0.7-0.5-1.1-1-1.1-0.4 0-0.7 0.2-0.9 0.5v-1.5zm5.5 3.6h0.4v-2.5h-0.4zm0-3.5v0.5h0.4v-0.5zm4.8 0.2v-0.4h-0.1c-0.6 0-0.9 0.3-0.9 0.9v0.2h-0.5v0.3h0.5v2.3h0.4v-2.3h0.6v-0.3h-0.6v-0.2q0-0.5 0.5-0.5zm3.7 3.3v-2.3h0.5v-0.3h-0.5v-0.9h-0.4v0.9h-0.6v0.3h0.6v2.3zm4.4-2.6c-0.6 0-1 0.2-1 0.7 0 0.9 1.7 0.5 1.7 1.2 0 0.3-0.4 0.4-0.6 0.4-0.5 0-0.7-0.3-0.7-0.5h-0.4c0 0.4 0.4 0.8 1.1 0.8 0.6 0 1-0.3 1-0.8 0-0.9-1.7-0.5-1.7-1.1q0-0.4 0.6-0.4c0.5 0 0.6 0.2 0.6 0.4h0.4c0-0.4-0.3-0.7-1-0.7zm7.8 2.6h0.4v-2.6h-0.4zm0-3.5v0.5h0.4v-0.5zm3.6 1v2.5h0.4v-1.5c0-0.4 0.4-0.7 0.8-0.7 0.4 0 0.7 0.3 0.7 0.7v1.5h0.4v-1.5c0-0.7-0.5-1.1-1-1.1-0.4 0-0.7 0.2-0.9 0.5v-0.4zm9.8 2.5v-2.2h0.6v-0.3h-0.6v-1h-0.4v1h-0.5v0.3h0.5v2.2zm4.9-2.6c-0.6 0-0.9 0.5-0.9 0.7v-0.6h-0.4v2.5h0.4v-1.1c0-0.6 0.3-1.1 0.9-1.1v-0.4zm4.1 0c-0.8 0-1.3 0.6-1.3 1.3 0 0.8 0.5 1.4 1.3 1.4 0.4 0 0.7-0.2 0.9-0.5v0.4h0.4v-2.5h-0.4v0.4c-0.2-0.3-0.5-0.5-0.9-0.5zm0 2.3c-0.6 0-0.9-0.4-0.9-1 0-0.5 0.3-0.9 0.9-0.9 0.6 0 0.9 0.4 0.9 0.9 0 0.6-0.3 1-0.9 1zm4.5 0.3h0.4v-2.5h-0.4zm0-3.5v0.5h0.4v-0.5zm3.6 0.9v2.6h0.4v-1.5c0-0.5 0.3-0.8 0.8-0.8 0.4 0 0.7 0.3 0.7 0.8v1.5h0.4v-1.5c0-0.8-0.5-1.1-1.1-1.1-0.4 0-0.6 0.1-0.8 0.4v-0.4zm10 0c-0.7 0-1 0.2-1 0.7 0 0.9 1.7 0.5 1.7 1.2 0 0.3-0.5 0.4-0.7 0.4-0.5 0-0.7-0.3-0.7-0.6h-0.4c0 0.5 0.4 0.9 1.1 0.9 0.7 0 1.1-0.3 1.1-0.8 0-0.9-1.7-0.5-1.7-1.2q0-0.3 0.6-0.3c0.4 0 0.6 0.2 0.6 0.4h0.4c-0.1-0.4-0.3-0.7-1-0.7zm5.3 2.2c-0.6 0-0.9-0.4-0.9-0.9 0-0.6 0.3-1 0.9-1 0.3 0 0.6 0.2 0.7 0.5h0.4c-0.1-0.5-0.6-0.8-1.2-0.8-0.7 0-1.2 0.5-1.2 1.3 0 0.7 0.5 1.3 1.2 1.3 0.6 0 1.1-0.4 1.2-0.9h-0.4c-0.1 0.3-0.4 0.5-0.7 0.5zm4.2-3.2v3.6h0.4v-1.5c0-0.5 0.3-0.8 0.7-0.8 0.5 0 0.7 0.3 0.7 0.8v1.5h0.4v-1.5c0-0.8-0.5-1.1-1-1.1-0.4 0-0.7 0.1-0.8 0.4v-1.4zm6.6 3.2c-0.6 0-0.9-0.3-0.9-0.8h2.1v-0.1c0-0.8-0.5-1.3-1.3-1.3-0.8 0-1.2 0.5-1.2 1.3 0 0.7 0.5 1.3 1.3 1.3 0.6 0 0.9-0.3 1.1-0.8h-0.4c-0.1 0.3-0.4 0.4-0.7 0.4zm-0.1-1.9c0.5 0 0.8 0.3 0.9 0.8h-1.7c0-0.5 0.3-0.8 0.8-0.8zm5.4-0.3c-0.7 0-1.2 0.5-1.2 1.3 0 0.7 0.5 1.3 1.2 1.3 0.4 0 0.7-0.2 0.9-0.5v0.5h0.4v-3.6h-0.4v1.4c-0.2-0.3-0.5-0.4-0.9-0.4zm0.1 2.2c-0.6 0-0.9-0.4-0.9-0.9 0-0.6 0.3-1 0.9-1 0.5 0 0.9 0.4 0.9 1 0 0.5-0.4 0.9-0.9 0.9zm6.7 0.4v-2.6h-0.4v1.5c0 0.4-0.4 0.7-0.8 0.7-0.4 0-0.7-0.3-0.7-0.7v-1.5h-0.4v1.5c0 0.7 0.5 1.1 1 1.1 0.5 0 0.7-0.2 0.9-0.4v0.4zm3.6-3.6h-0.4v3.6h0.4zm4.4 3.2c-0.6 0-0.9-0.3-0.9-0.8h2.1v-0.1c0-0.8-0.5-1.4-1.3-1.4-0.7 0-1.2 0.6-1.2 1.4 0 0.7 0.5 1.3 1.3 1.3 0.6 0 0.9-0.3 1.1-0.8h-0.4c-0.1 0.3-0.4 0.4-0.7 0.4zm-0.1-1.9c0.5 0 0.8 0.3 0.9 0.8h-1.7c0-0.5 0.3-0.8 0.8-0.8zm5.2-0.4c-0.6 0-1 0.3-1 0.8 0 0.9 1.7 0.5 1.7 1.1 0 0.4-0.4 0.5-0.6 0.5-0.5 0-0.7-0.3-0.7-0.6h-0.4c0 0.5 0.4 0.9 1.1 0.9 0.6 0 1-0.3 1-0.8 0-1-1.7-0.6-1.7-1.2q0-0.3 0.6-0.3c0.5 0 0.6 0.1 0.6 0.4h0.4c0-0.4-0.3-0.8-1-0.8zm9-0.6v-0.4h-0.1c-0.5 0-0.9 0.3-0.9 0.8v0.3h-0.4v0.3h0.4v2.2h0.4v-2.2h0.6v-0.3h-0.6v-0.2q0-0.5 0.5-0.5zm4.1 0.6c-0.8 0-1.3 0.6-1.3 1.4 0 0.7 0.5 1.3 1.3 1.3 0.7 0 1.2-0.6 1.2-1.3 0-0.8-0.5-1.4-1.2-1.4zm0 2.3c-0.6 0-0.9-0.4-0.9-0.9 0-0.6 0.3-1 0.9-1 0.5 0 0.8 0.4 0.8 1 0 0.5-0.3 0.9-0.8 0.9zm5.6-2.3c-0.6 0-0.9 0.5-0.9 0.7v-0.6h-0.4v2.5h0.4v-1.1c0-0.6 0.3-1.1 0.9-1.1v-0.4zm8.9 0.1h-0.4l-0.9 2.1-0.8-2.1h-0.4l1 2.5-0.4 1.1h0.4zm4-0.1c-0.8 0-1.3 0.6-1.3 1.3 0 0.8 0.5 1.4 1.3 1.4 0.7 0 1.2-0.6 1.2-1.4 0-0.7-0.5-1.3-1.2-1.3zm0 2.3c-0.6 0-0.9-0.4-0.9-1 0-0.5 0.3-0.9 0.9-0.9 0.5 0 0.8 0.4 0.8 0.9 0 0.6-0.3 1-0.8 1zm6.5 0.3v-2.5h-0.3v1.4c0 0.5-0.4 0.8-0.8 0.8-0.4 0-0.7-0.3-0.7-0.8v-1.4h-0.4v1.4c0 0.8 0.5 1.2 1 1.2 0.4 0 0.7-0.2 0.9-0.5v0.4z"/><path fill-rule="evenodd" class="a" d="m259 215v16h-218v-16z"/></svg>