<svg data-v-423bf9ae="" xmlns="http://www.w3.org/2000/svg" viewBox="0 0 292.3714537192381 181" class="iconAboveSlogan"><!----><!----><!----><g data-v-423bf9ae="" id="1a283cf0-4e6d-4113-bf12-5c42e9604710" fill="white" transform="matrix(4.285714577655423,0,0,4.285714577655423,-2.228572669322034,90.99999581064492)"><path d="M3.69 8.81C4.93 9.11 5.76 9.43 6.20 9.79C6.51 10.04 6.66 10.36 6.66 10.76C6.66 11.16 6.58 11.47 6.42 11.70C5.99 12.29 5.25 12.59 4.19 12.59C2.69 12.59 1.86 12.08 1.68 11.07L0.52 11.07C0.85 12.68 2.08 13.48 4.18 13.48C5.12 13.48 5.90 13.27 6.54 12.86C7.29 12.37 7.67 11.65 7.67 10.69C7.67 9.91 7.37 9.31 6.76 8.88C6.32 8.57 5.62 8.29 4.65 8.04C3.68 7.79 3.05 7.58 2.75 7.42C2.11 7.10 1.79 6.65 1.79 6.07C1.79 5.76 1.86 5.50 2.00 5.30C2.37 4.75 3.01 4.48 3.93 4.48C5.23 4.48 5.98 4.89 6.17 5.71L7.23 5.71C6.88 4.33 5.78 3.64 3.93 3.64C3.08 3.64 2.35 3.86 1.72 4.30C1.10 4.75 0.78 5.42 0.78 6.31C0.78 7.53 1.75 8.36 3.69 8.81ZM10.08 5.01C9.96 4.89 9.81 4.83 9.64 4.83C9.47 4.83 9.32 4.89 9.20 5.01C9.08 5.13 9.02 5.28 9.02 5.45C9.02 5.63 9.08 5.77 9.20 5.89C9.32 6.02 9.47 6.08 9.64 6.08C9.81 6.08 9.96 6.02 10.08 5.89C10.20 5.77 10.26 5.63 10.26 5.45C10.26 5.28 10.20 5.13 10.08 5.01ZM10.14 13.30L10.14 7.14L9.16 7.14L9.16 13.30ZM17.28 10.22C17.28 10.82 17.07 11.34 16.65 11.79C16.24 12.24 15.72 12.46 15.11 12.46C14.51 12.46 13.99 12.24 13.57 11.79C13.15 11.35 12.94 10.83 12.94 10.22C12.94 9.61 13.15 9.09 13.57 8.65C13.99 8.20 14.51 7.98 15.11 7.98C15.72 7.98 16.24 8.20 16.65 8.65C17.07 9.10 17.28 9.62 17.28 10.22ZM12.91 14.14L11.91 14.14C12.02 14.79 12.32 15.37 12.81 15.86C13.44 16.49 14.19 16.80 15.06 16.80C15.94 16.80 16.69 16.49 17.32 15.86C17.94 15.24 18.26 14.49 18.26 13.61L18.26 7.14L17.28 7.14L17.28 8.17C17.23 8.11 17.18 8.05 17.11 7.98C16.50 7.33 15.79 7.00 14.97 7.00C14.11 7.00 13.39 7.33 12.80 7.98C12.24 8.61 11.96 9.36 11.96 10.22C11.96 11.08 12.24 11.83 12.80 12.46C13.39 13.11 14.11 13.44 14.97 13.44C15.82 13.44 16.53 13.11 17.11 12.46C17.18 12.39 17.23 12.33 17.28 12.27L17.28 13.61C17.28 14.21 17.06 14.74 16.63 15.17C16.19 15.60 15.67 15.82 15.06 15.82C14.46 15.82 13.94 15.60 13.50 15.17C13.20 14.87 13.00 14.52 12.91 14.14ZM24.61 13.30L25.59 13.30L25.59 9.45C25.59 8.74 25.41 8.16 25.03 7.72C24.85 7.50 24.62 7.33 24.35 7.20C24.08 7.08 23.72 7.01 23.28 7.01C22.84 7.01 22.46 7.13 22.12 7.36C21.80 7.57 21.54 7.85 21.34 8.20L21.34 7.14L20.36 7.14L20.36 13.30L21.34 13.30L21.34 10.72C21.34 9.94 21.48 9.32 21.78 8.86C21.94 8.60 22.15 8.39 22.41 8.23C22.68 8.07 23.02 7.99 23.44 7.99C23.86 7.99 24.16 8.14 24.34 8.42C24.52 8.71 24.61 9.05 24.61 9.45ZM32.38 10.22C32.38 10.82 32.17 11.34 31.76 11.79C31.34 12.24 30.83 12.46 30.21 12.46C29.60 12.46 29.08 12.24 28.66 11.79C28.25 11.34 28.04 10.82 28.04 10.22C28.04 9.62 28.25 9.10 28.66 8.65C29.08 8.20 29.60 7.98 30.21 7.98C30.83 7.98 31.34 8.20 31.76 8.65C32.17 9.10 32.38 9.62 32.38 10.22ZM33.36 13.30L33.36 7.14L32.38 7.14L32.38 8.19C32.33 8.12 32.27 8.05 32.21 7.98C31.63 7.33 30.91 7.00 30.06 7.00C29.21 7.00 28.49 7.33 27.91 7.98C27.34 8.61 27.06 9.36 27.06 10.22C27.06 11.08 27.34 11.83 27.91 12.46C28.49 13.11 29.21 13.44 30.06 13.44C30.91 13.44 31.63 13.11 32.21 12.46C32.27 12.39 32.33 12.32 32.38 12.25L32.38 13.30ZM36.44 13.30L36.44 2.80L35.46 2.80L35.46 13.30ZM44.97 8.81C46.20 9.11 47.04 9.43 47.48 9.79C47.78 10.04 47.94 10.36 47.94 10.76C47.94 11.16 47.85 11.47 47.69 11.70C47.27 12.29 46.52 12.59 45.46 12.59C43.96 12.59 43.13 12.08 42.95 11.07L41.79 11.07C42.13 12.68 43.35 13.48 45.46 13.48C46.39 13.48 47.18 13.27 47.81 12.86C48.57 12.37 48.94 11.65 48.95 10.69C48.94 9.91 48.64 9.31 48.03 8.88C47.59 8.57 46.89 8.29 45.92 8.04C44.95 7.79 44.32 7.58 44.02 7.42C43.38 7.10 43.06 6.65 43.07 6.07C43.06 5.76 43.13 5.50 43.27 5.30C43.64 4.75 44.28 4.48 45.20 4.48C46.50 4.48 47.25 4.89 47.44 5.71L48.50 5.71C48.15 4.33 47.05 3.64 45.20 3.64C44.35 3.64 43.62 3.86 42.99 4.30C42.37 4.75 42.06 5.42 42.06 6.31C42.05 7.53 43.02 8.36 44.97 8.81ZM51.34 13.30L51.34 10.72C51.34 9.87 51.48 9.22 51.78 8.77C51.94 8.52 52.15 8.33 52.42 8.20C52.68 8.06 53.02 7.99 53.44 7.99C53.86 7.99 54.16 8.14 54.34 8.42C54.52 8.71 54.61 9.05 54.61 9.45L54.61 13.30L55.59 13.30L55.59 9.45C55.59 8.74 55.41 8.16 55.03 7.72C54.85 7.50 54.62 7.33 54.35 7.20C54.08 7.08 53.72 7.01 53.28 7.01C52.85 7.01 52.46 7.13 52.12 7.36C51.80 7.57 51.54 7.85 51.34 8.20L51.34 2.80L50.36 2.80L50.36 13.30ZM58.48 5.01C58.36 4.89 58.21 4.83 58.04 4.83C57.86 4.83 57.72 4.89 57.60 5.01C57.47 5.13 57.41 5.28 57.41 5.45C57.41 5.63 57.47 5.77 57.60 5.89C57.72 6.02 57.86 6.08 58.04 6.08C58.21 6.08 58.36 6.02 58.48 5.89C58.60 5.77 58.66 5.63 58.66 5.45C58.66 5.28 58.60 5.13 58.48 5.01ZM58.53 13.30L58.53 7.14L57.55 7.14L57.55 13.30ZM63.99 3.71L63.99 2.80L63.29 2.80C62.60 2.80 62.11 2.97 61.82 3.31C61.52 3.65 61.38 4.13 61.38 4.76L61.38 7.14L60.13 7.14L60.13 8.05L61.38 8.05L61.38 13.30L62.36 13.30L62.36 8.05L63.99 8.05L63.99 7.14L62.36 7.14L62.36 4.48C62.36 4.27 62.41 4.08 62.51 3.93C62.61 3.78 62.83 3.71 63.15 3.71ZM64.69 8.05L66.23 8.05L66.23 13.30L67.21 13.30L67.21 8.05L68.74 8.05L68.74 7.14L67.21 7.14L67.21 4.75L66.23 4.75L66.23 7.14L64.69 7.14Z"></path></g><!----><g data-v-423bf9ae="" id="a9137dc8-c164-4e75-b6d2-1ccdedc7eec5" transform="matrix(1.129432958875224,0,0,1.129432958875224,89.06026869493812,-10.276597139087002)" stroke="none" fill="white"><path d="M84.199 72.941a8.147 8.147 0 00-7.607-7.262l-1.301-14.881a24.718 24.718 0 00-7.942-16.108 24.714 24.714 0 00-16.738-6.509 24.717 24.717 0 00-16.738 6.509 24.713 24.713 0 00-7.942 16.108L24.63 65.679a8.147 8.147 0 00-7.607 7.262l-1.801 16.608H86l-1.801-16.608zM32.537 51.375c.825-9.443 8.595-16.563 18.074-16.563 9.479 0 17.248 7.121 18.074 16.563l1.248 14.28H31.289l1.248-14.28zm-9.926 31.542l1.004-9.261c.085-.78.74-1.369 1.525-1.369h50.94c.785 0 1.441.589 1.525 1.369l1.004 9.261H22.611zm28-58.311a3.316 3.316 0 003.316-3.316v-8.111a3.316 3.316 0 10-6.632 0v8.111a3.315 3.315 0 003.316 3.316zm-17.344 2.22a3.314 3.314 0 004.53 1.213 3.317 3.317 0 001.214-4.53l-4.055-7.024a3.317 3.317 0 00-5.744 3.316l4.055 7.025zm30.158 1.213a3.316 3.316 0 004.53-1.213l4.055-7.024a3.316 3.316 0 10-5.744-3.316l-4.055 7.024a3.315 3.315 0 001.214 4.529zM37.162 51.78l-.807 9.233h14.256V39.455c-7.053 0-12.835 5.298-13.449 12.325z"></path></g><!----><g data-v-423bf9ae="" id="f1d5eb09-1595-43e7-bfac-f1b257715226" fill="white" transform="matrix(0.4113504554310088,0,0,0.4113504554310088,37.47843476595382,203.49926251728033)"><path d="M7.71 2.21L0.20 2.21L0.20 3.22L3.43 3.22L3.43 11.48L4.48 11.48L4.48 3.22L7.71 3.22ZM18.49 4.37C16.76 4.37 16.06 5.73 15.92 6.20L15.92 4.48L14.87 4.48L14.87 11.48L15.92 11.48L15.92 8.40C15.92 6.86 16.87 5.42 18.44 5.42L18.56 5.42L18.56 4.37ZM29.47 4.37C27.43 4.37 26.08 5.98 26.08 7.98C26.08 9.98 27.43 11.59 29.47 11.59C30.63 11.59 31.46 11.12 31.98 10.36L31.98 11.48L33.03 11.48L33.03 4.48L31.98 4.48L31.98 5.61C31.46 4.86 30.63 4.37 29.47 4.37ZM29.61 10.64C28.06 10.64 27.13 9.42 27.13 7.98C27.13 6.54 28.06 5.32 29.61 5.32C31.16 5.32 32.03 6.54 32.03 7.98C32.03 9.42 31.16 10.64 29.61 10.64ZM45.00 10.64C43.44 10.64 42.46 9.42 42.46 7.98C42.46 6.54 43.44 5.32 45.00 5.32C45.99 5.32 46.70 5.88 47.03 6.68L48.16 6.68C47.75 5.32 46.51 4.37 44.86 4.37C42.76 4.37 41.41 5.98 41.41 7.98C41.41 9.98 42.76 11.59 44.86 11.59C46.51 11.59 47.75 10.64 48.16 9.28L47.03 9.28C46.70 10.08 45.99 10.64 45.00 10.64ZM62.36 4.48L60.89 4.48L57.51 7.95L57.51 1.68L56.46 1.68L56.46 11.48L57.51 11.48L57.51 9.27L58.83 7.97L61.28 11.48L62.57 11.48L59.54 7.24ZM70.49 11.48L71.54 11.48L71.54 4.48L70.49 4.48ZM70.45 1.93L70.45 3.30L71.58 3.30L71.58 1.93ZM80.36 4.48L80.36 11.48L81.41 11.48L81.41 7.45C81.41 6.19 82.36 5.32 83.52 5.32C84.67 5.32 85.48 6.16 85.48 7.43L85.48 11.48L86.53 11.48L86.53 7.41C86.53 5.42 85.18 4.37 83.73 4.37C82.60 4.37 81.91 4.90 81.41 5.57L81.41 4.48ZM100.74 4.48L100.74 5.60C100.23 4.84 99.40 4.37 98.24 4.37C96.19 4.37 94.85 5.92 94.85 7.92C94.85 9.93 96.19 11.48 98.24 11.48C99.40 11.48 100.23 10.99 100.74 10.23L100.74 11.20C100.74 12.64 100.04 13.41 98.43 13.41C97.37 13.41 96.67 13.01 96.39 12.32L95.23 12.32C95.62 13.54 96.73 14.36 98.49 14.36C100.59 14.36 101.79 13.27 101.79 11.27L101.79 4.48ZM98.38 10.53C96.82 10.53 95.90 9.37 95.90 7.92C95.90 6.48 96.82 5.32 98.38 5.32C99.90 5.32 100.80 6.48 100.80 7.92C100.80 9.37 99.90 10.53 98.38 10.53ZM123.03 4.37C121.23 4.37 120.29 5.11 120.29 6.37C120.29 8.93 124.95 7.84 124.95 9.59C124.95 10.54 123.73 10.70 123.16 10.70C121.80 10.70 121.27 10.00 121.20 9.28L120.11 9.28C120.18 10.51 121.20 11.59 123.14 11.59C124.88 11.59 126 10.85 126 9.49C126 6.86 121.34 7.95 121.34 6.27C121.34 5.59 121.91 5.26 123.00 5.26C124.18 5.26 124.63 5.75 124.71 6.36L125.78 6.36C125.65 5.33 124.88 4.37 123.03 4.37ZM134.34 1.68L134.34 11.48L135.39 11.48L135.39 7.45C135.39 6.19 136.35 5.32 137.51 5.32C138.66 5.32 139.47 6.16 139.47 7.43L139.47 11.48L140.52 11.48L140.52 7.41C140.52 5.42 139.16 4.37 137.72 4.37C136.58 4.37 135.90 4.90 135.39 5.57L135.39 1.68ZM149.27 11.48L150.32 11.48L150.32 4.48L149.27 4.48ZM149.23 1.93L149.23 3.30L150.36 3.30L150.36 1.93ZM162.29 2.56L162.29 1.57L162.20 1.57C160.59 1.57 159.61 2.34 159.61 3.86L159.61 4.48L158.41 4.48L158.41 5.40L159.61 5.40L159.61 11.48L160.66 11.48L160.66 5.40L162.29 5.40L162.29 4.48L160.66 4.48L160.66 3.95C160.66 2.98 161.17 2.56 162.15 2.56ZM172.24 11.48L172.24 5.40L173.85 5.40L173.85 4.48L172.24 4.48L172.24 1.97L171.19 1.97L171.19 4.48L169.76 4.48L169.76 5.40L171.19 5.40L171.19 11.48ZM184.44 4.37C182.63 4.37 181.69 5.11 181.69 6.37C181.69 8.93 186.35 7.84 186.35 9.59C186.35 10.54 185.14 10.70 184.56 10.70C183.20 10.70 182.67 10.00 182.60 9.28L181.51 9.28C181.58 10.51 182.60 11.59 184.55 11.59C186.28 11.59 187.40 10.85 187.40 9.49C187.40 6.86 182.74 7.95 182.74 6.27C182.74 5.59 183.32 5.26 184.41 5.26C185.58 5.26 186.03 5.75 186.12 6.36L187.18 6.36C187.05 5.33 186.28 4.37 184.44 4.37ZM205.73 11.48L206.78 11.48L206.78 4.48L205.73 4.48ZM205.69 1.93L205.69 3.30L206.82 3.30L206.82 1.93ZM215.60 4.48L215.60 11.48L216.65 11.48L216.65 7.45C216.65 6.19 217.60 5.32 218.76 5.32C219.91 5.32 220.72 6.16 220.72 7.43L220.72 11.48L221.77 11.48L221.77 7.41C221.77 5.42 220.42 4.37 218.97 4.37C217.84 4.37 217.15 4.90 216.65 5.57L216.65 4.48ZM242.31 11.48L242.31 5.40L243.92 5.40L243.92 4.48L242.31 4.48L242.31 1.97L241.26 1.97L241.26 4.48L239.83 4.48L239.83 5.40L241.26 5.40L241.26 11.48ZM255.70 4.37C253.96 4.37 253.26 5.73 253.12 6.20L253.12 4.48L252.07 4.48L252.07 11.48L253.12 11.48L253.12 8.40C253.12 6.86 254.07 5.42 255.64 5.42L255.77 5.42L255.77 4.37ZM266.67 4.37C264.63 4.37 263.28 5.98 263.28 7.98C263.28 9.98 264.63 11.59 266.67 11.59C267.83 11.59 268.66 11.12 269.18 10.36L269.18 11.48L270.23 11.48L270.23 4.48L269.18 4.48L269.18 5.61C268.66 4.86 267.83 4.37 266.67 4.37ZM266.81 10.64C265.26 10.64 264.33 9.42 264.33 7.98C264.33 6.54 265.26 5.32 266.81 5.32C268.37 5.32 269.23 6.54 269.23 7.98C269.23 9.42 268.37 10.64 266.81 10.64ZM279.05 11.48L280.10 11.48L280.10 4.48L279.05 4.48ZM279.01 1.93L279.01 3.30L280.14 3.30L280.14 1.93ZM288.92 4.48L288.92 11.48L289.97 11.48L289.97 7.45C289.97 6.19 290.92 5.32 292.08 5.32C293.23 5.32 294.04 6.16 294.04 7.43L294.04 11.48L295.09 11.48L295.09 7.41C295.09 5.42 293.73 4.37 292.29 4.37C291.16 4.37 290.47 4.90 289.97 5.57L289.97 4.48ZM316.26 4.37C314.45 4.37 313.52 5.11 313.52 6.37C313.52 8.93 318.18 7.84 318.18 9.59C318.18 10.54 316.96 10.70 316.39 10.70C315.03 10.70 314.50 10.00 314.43 9.28L313.33 9.28C313.40 10.51 314.43 11.59 316.37 11.59C318.11 11.59 319.23 10.85 319.23 9.49C319.23 6.86 314.57 7.95 314.57 6.27C314.57 5.59 315.14 5.26 316.23 5.26C317.41 5.26 317.86 5.75 317.94 6.36L319.00 6.36C318.88 5.33 318.11 4.37 316.26 4.37ZM330.72 10.64C329.17 10.64 328.19 9.42 328.19 7.98C328.19 6.54 329.17 5.32 330.72 5.32C331.72 5.32 332.43 5.88 332.75 6.68L333.89 6.68C333.48 5.32 332.23 4.37 330.58 4.37C328.48 4.37 327.14 5.98 327.14 7.98C327.14 9.98 328.48 11.59 330.58 11.59C332.23 11.59 333.48 10.64 333.89 9.28L332.75 9.28C332.43 10.08 331.72 10.64 330.72 10.64ZM342.19 1.68L342.19 11.48L343.24 11.48L343.24 7.45C343.24 6.19 344.19 5.32 345.35 5.32C346.50 5.32 347.31 6.16 347.31 7.43L347.31 11.48L348.36 11.48L348.36 7.41C348.36 5.42 347.00 4.37 345.56 4.37C344.43 4.37 343.74 4.90 343.24 5.57L343.24 1.68ZM360.23 10.64C358.82 10.64 357.91 9.65 357.76 8.40L363.62 8.40L363.62 7.98C363.62 5.98 362.29 4.37 360.15 4.37C358.01 4.37 356.68 5.98 356.68 7.98C356.68 9.98 358.08 11.59 360.22 11.59C361.89 11.59 362.92 10.72 363.41 9.46L362.26 9.46C361.89 10.16 361.21 10.64 360.23 10.64ZM360.15 5.32C361.49 5.32 362.33 6.23 362.53 7.42L357.77 7.42C357.97 6.23 358.81 5.32 360.15 5.32ZM374.86 4.37C372.82 4.37 371.48 5.98 371.48 7.98C371.48 9.98 372.82 11.59 374.86 11.59C376.03 11.59 376.85 11.12 377.37 10.36L377.37 11.48L378.42 11.48L378.42 1.68L377.37 1.68L377.37 5.61C376.85 4.86 376.03 4.37 374.86 4.37ZM375.00 10.64C373.45 10.64 372.53 9.42 372.53 7.98C372.53 6.54 373.45 5.32 375.00 5.32C376.56 5.32 377.43 6.54 377.43 7.98C377.43 9.42 376.56 10.64 375.00 10.64ZM393.34 11.48L393.34 4.48L392.29 4.48L392.29 8.51C392.29 9.77 391.34 10.64 390.18 10.64C389.03 10.64 388.22 9.80 388.22 8.53L388.22 4.48L387.17 4.48L387.17 8.55C387.17 10.54 388.53 11.59 389.97 11.59C391.10 11.59 391.79 11.06 392.29 10.39L392.29 11.48ZM403.21 1.68L402.16 1.68L402.16 11.48L403.21 11.48ZM415.16 10.64C413.74 10.64 412.83 9.65 412.68 8.40L418.54 8.40L418.54 7.98C418.54 5.98 417.21 4.37 415.07 4.37C412.93 4.37 411.60 5.98 411.60 7.98C411.60 9.98 413.00 11.59 415.14 11.59C416.81 11.59 417.84 10.72 418.33 9.46L417.19 9.46C416.81 10.16 416.14 10.64 415.16 10.64ZM415.07 5.32C416.42 5.32 417.26 6.23 417.45 7.42L412.69 7.42C412.89 6.23 413.73 5.32 415.07 5.32ZM429.27 4.37C427.46 4.37 426.52 5.11 426.52 6.37C426.52 8.93 431.19 7.84 431.19 9.59C431.19 10.54 429.97 10.70 429.39 10.70C428.04 10.70 427.50 10.00 427.43 9.28L426.34 9.28C426.41 10.51 427.43 11.59 429.38 11.59C431.12 11.59 432.24 10.85 432.24 9.49C432.24 6.86 427.57 7.95 427.57 6.27C427.57 5.59 428.15 5.26 429.24 5.26C430.42 5.26 430.86 5.75 430.95 6.36L432.01 6.36C431.89 5.33 431.12 4.37 429.27 4.37ZM453.71 2.56L453.71 1.57L453.63 1.57C452.02 1.57 451.04 2.34 451.04 3.86L451.04 4.48L449.83 4.48L449.83 5.40L451.04 5.40L451.04 11.48L452.09 11.48L452.09 5.40L453.71 5.40L453.71 4.48L452.09 4.48L452.09 3.95C452.09 2.98 452.59 2.56 453.57 2.56ZM464.76 4.37C462.62 4.37 461.29 5.98 461.29 7.98C461.29 9.98 462.62 11.59 464.76 11.59C466.90 11.59 468.23 9.98 468.23 7.98C468.23 5.98 466.90 4.37 464.76 4.37ZM464.76 10.64C463.20 10.64 462.34 9.42 462.34 7.98C462.34 6.54 463.20 5.32 464.76 5.32C466.31 5.32 467.18 6.54 467.18 7.98C467.18 9.42 466.31 10.64 464.76 10.64ZM480.24 4.37C478.51 4.37 477.81 5.73 477.67 6.20L477.67 4.48L476.62 4.48L476.62 11.48L477.67 11.48L477.67 8.40C477.67 6.86 478.62 5.42 480.19 5.42L480.31 5.42L480.31 4.37ZM504.43 4.48L503.29 4.48L500.99 10.22L498.74 4.48L497.57 4.48L500.43 11.38L499.16 14.25L500.29 14.25ZM515.31 4.37C513.17 4.37 511.84 5.98 511.84 7.98C511.84 9.98 513.17 11.59 515.31 11.59C517.45 11.59 518.78 9.98 518.78 7.98C518.78 5.98 517.45 4.37 515.31 4.37ZM515.31 10.64C513.76 10.64 512.89 9.42 512.89 7.98C512.89 6.54 513.76 5.32 515.31 5.32C516.87 5.32 517.73 6.54 517.73 7.98C517.73 9.42 516.87 10.64 515.31 10.64ZM533.27 11.48L533.27 4.48L532.22 4.48L532.22 8.51C532.22 9.77 531.27 10.64 530.11 10.64C528.96 10.64 528.15 9.80 528.15 8.53L528.15 4.48L527.10 4.48L527.10 8.55C527.10 10.54 528.46 11.59 529.90 11.59C531.03 11.59 531.72 11.06 532.22 10.39L532.22 11.48Z"></path></g></svg>