<svg data-v-fde0c5aa="" xmlns="http://www.w3.org/2000/svg" viewBox="0 0 300 300" class="font"><!----><defs data-v-fde0c5aa=""><!----></defs><rect data-v-fde0c5aa="" fill="#D2EAF5" x="0" y="0" width="300px" height="300px" class="logo-background-square"></rect><defs data-v-fde0c5aa=""><linearGradient data-v-fde0c5aa="" gradientTransform="rotate(25)" id="c47128c3-06d2-4c59-8762-db178b4ee4df" x1="0%" y1="0%" x2="100%" y2="0%"><stop data-v-fde0c5aa="" offset="0%" stop-color="#000A68" stop-opacity="1"></stop><stop data-v-fde0c5aa="" offset="100%" stop-color="#00C4EE" stop-opacity="1"></stop></linearGradient></defs><g data-v-fde0c5aa="" id="53ec8bde-b8b7-4564-bffd-f3e4e2bf5c7d" fill="url(#c47128c3-06d2-4c59-8762-db178b4ee4df)" transform="matrix(3.2248606869452137,0,0,3.2248606869452137,38.323072504297826,118.39636695944365)"><path d="M3.69 8.81C4.93 9.11 5.76 9.43 6.20 9.79C6.51 10.04 6.66 10.36 6.66 10.76C6.66 11.16 6.58 11.47 6.42 11.70C5.99 12.29 5.25 12.59 4.19 12.59C2.69 12.59 1.86 12.08 1.68 11.07L0.52 11.07C0.85 12.68 2.08 13.48 4.18 13.48C5.12 13.48 5.90 13.27 6.54 12.86C7.29 12.37 7.67 11.65 7.67 10.69C7.67 9.91 7.37 9.31 6.76 8.88C6.32 8.57 5.62 8.29 4.65 8.04C3.68 7.79 3.05 7.58 2.75 7.42C2.11 7.10 1.79 6.65 1.79 6.07C1.79 5.76 1.86 5.50 2.00 5.30C2.37 4.75 3.01 4.48 3.93 4.48C5.23 4.48 5.98 4.89 6.17 5.71L7.23 5.71C6.88 4.33 5.78 3.64 3.93 3.64C3.08 3.64 2.35 3.86 1.72 4.30C1.10 4.75 0.78 5.42 0.78 6.31C0.78 7.53 1.75 8.36 3.69 8.81ZM10.08 5.01C9.96 4.89 9.81 4.83 9.64 4.83C9.47 4.83 9.32 4.89 9.20 5.01C9.08 5.13 9.02 5.28 9.02 5.45C9.02 5.63 9.08 5.77 9.20 5.89C9.32 6.02 9.47 6.08 9.64 6.08C9.81 6.08 9.96 6.02 10.08 5.89C10.20 5.77 10.26 5.63 10.26 5.45C10.26 5.28 10.20 5.13 10.08 5.01ZM10.14 13.30L10.14 7.14L9.16 7.14L9.16 13.30ZM17.28 10.22C17.28 10.82 17.07 11.34 16.65 11.79C16.24 12.24 15.72 12.46 15.11 12.46C14.51 12.46 13.99 12.24 13.57 11.79C13.15 11.35 12.94 10.83 12.94 10.22C12.94 9.61 13.15 9.09 13.57 8.65C13.99 8.20 14.51 7.98 15.11 7.98C15.72 7.98 16.24 8.20 16.65 8.65C17.07 9.10 17.28 9.62 17.28 10.22ZM12.91 14.14L11.91 14.14C12.02 14.79 12.32 15.37 12.81 15.86C13.44 16.49 14.19 16.80 15.06 16.80C15.94 16.80 16.69 16.49 17.32 15.86C17.94 15.24 18.26 14.49 18.26 13.61L18.26 7.14L17.28 7.14L17.28 8.17C17.23 8.11 17.18 8.05 17.11 7.98C16.50 7.33 15.79 7.00 14.97 7.00C14.11 7.00 13.39 7.33 12.80 7.98C12.24 8.61 11.96 9.36 11.96 10.22C11.96 11.08 12.24 11.83 12.80 12.46C13.39 13.11 14.11 13.44 14.97 13.44C15.82 13.44 16.53 13.11 17.11 12.46C17.18 12.39 17.23 12.33 17.28 12.27L17.28 13.61C17.28 14.21 17.06 14.74 16.63 15.17C16.19 15.60 15.67 15.82 15.06 15.82C14.46 15.82 13.94 15.60 13.50 15.17C13.20 14.87 13.00 14.52 12.91 14.14ZM24.61 13.30L25.59 13.30L25.59 9.45C25.59 8.74 25.41 8.16 25.03 7.72C24.85 7.50 24.62 7.33 24.35 7.20C24.08 7.08 23.72 7.01 23.28 7.01C22.84 7.01 22.46 7.13 22.12 7.36C21.80 7.57 21.54 7.85 21.34 8.20L21.34 7.14L20.36 7.14L20.36 13.30L21.34 13.30L21.34 10.72C21.34 9.94 21.48 9.32 21.78 8.86C21.94 8.60 22.15 8.39 22.41 8.23C22.68 8.07 23.02 7.99 23.44 7.99C23.86 7.99 24.16 8.14 24.34 8.42C24.52 8.71 24.61 9.05 24.61 9.45ZM32.38 10.22C32.38 10.82 32.17 11.34 31.76 11.79C31.34 12.24 30.83 12.46 30.21 12.46C29.60 12.46 29.08 12.24 28.66 11.79C28.25 11.34 28.04 10.82 28.04 10.22C28.04 9.62 28.25 9.10 28.66 8.65C29.08 8.20 29.60 7.98 30.21 7.98C30.83 7.98 31.34 8.20 31.76 8.65C32.17 9.10 32.38 9.62 32.38 10.22ZM33.36 13.30L33.36 7.14L32.38 7.14L32.38 8.19C32.33 8.12 32.27 8.05 32.21 7.98C31.63 7.33 30.91 7.00 30.06 7.00C29.21 7.00 28.49 7.33 27.91 7.98C27.34 8.61 27.06 9.36 27.06 10.22C27.06 11.08 27.34 11.83 27.91 12.46C28.49 13.11 29.21 13.44 30.06 13.44C30.91 13.44 31.63 13.11 32.21 12.46C32.27 12.39 32.33 12.32 32.38 12.25L32.38 13.30ZM36.44 13.30L36.44 2.80L35.46 2.80L35.46 13.30ZM44.97 8.81C46.20 9.11 47.04 9.43 47.48 9.79C47.78 10.04 47.94 10.36 47.94 10.76C47.94 11.16 47.85 11.47 47.69 11.70C47.27 12.29 46.52 12.59 45.46 12.59C43.96 12.59 43.13 12.08 42.95 11.07L41.79 11.07C42.13 12.68 43.35 13.48 45.46 13.48C46.39 13.48 47.18 13.27 47.81 12.86C48.57 12.37 48.94 11.65 48.95 10.69C48.94 9.91 48.64 9.31 48.03 8.88C47.59 8.57 46.89 8.29 45.92 8.04C44.95 7.79 44.32 7.58 44.02 7.42C43.38 7.10 43.06 6.65 43.07 6.07C43.06 5.76 43.13 5.50 43.27 5.30C43.64 4.75 44.28 4.48 45.20 4.48C46.50 4.48 47.25 4.89 47.44 5.71L48.50 5.71C48.15 4.33 47.05 3.64 45.20 3.64C44.35 3.64 43.62 3.86 42.99 4.30C42.37 4.75 42.06 5.42 42.06 6.31C42.05 7.53 43.02 8.36 44.97 8.81ZM51.34 13.30L51.34 10.72C51.34 9.87 51.48 9.22 51.78 8.77C51.94 8.52 52.15 8.33 52.42 8.20C52.68 8.06 53.02 7.99 53.44 7.99C53.86 7.99 54.16 8.14 54.34 8.42C54.52 8.71 54.61 9.05 54.61 9.45L54.61 13.30L55.59 13.30L55.59 9.45C55.59 8.74 55.41 8.16 55.03 7.72C54.85 7.50 54.62 7.33 54.35 7.20C54.08 7.08 53.72 7.01 53.28 7.01C52.85 7.01 52.46 7.13 52.12 7.36C51.80 7.57 51.54 7.85 51.34 8.20L51.34 2.80L50.36 2.80L50.36 13.30ZM58.48 5.01C58.36 4.89 58.21 4.83 58.04 4.83C57.86 4.83 57.72 4.89 57.60 5.01C57.47 5.13 57.41 5.28 57.41 5.45C57.41 5.63 57.47 5.77 57.60 5.89C57.72 6.02 57.86 6.08 58.04 6.08C58.21 6.08 58.36 6.02 58.48 5.89C58.60 5.77 58.66 5.63 58.66 5.45C58.66 5.28 58.60 5.13 58.48 5.01ZM58.53 13.30L58.53 7.14L57.55 7.14L57.55 13.30ZM63.99 3.71L63.99 2.80L63.29 2.80C62.60 2.80 62.11 2.97 61.82 3.31C61.52 3.65 61.38 4.13 61.38 4.76L61.38 7.14L60.13 7.14L60.13 8.05L61.38 8.05L61.38 13.30L62.36 13.30L62.36 8.05L63.99 8.05L63.99 7.14L62.36 7.14L62.36 4.48C62.36 4.27 62.41 4.08 62.51 3.93C62.61 3.78 62.83 3.71 63.15 3.71ZM64.69 8.05L66.23 8.05L66.23 13.30L67.21 13.30L67.21 8.05L68.74 8.05L68.74 7.14L67.21 7.14L67.21 4.75L66.23 4.75L66.23 7.14L64.69 7.14Z"></path></g><!----><!----></svg>